<?xml version="1.0" encoding="UTF-8"?>
<svg width="21px" height="21px" viewBox="0 0 21 21" version="1.1" xmlns="http://www.w3.org/2000/svg" xmlns:xlink="http://www.w3.org/1999/xlink">
    <title>article_icon</title>
    <g id="页面-1" stroke="none" stroke-width="1" fill="none" fill-rule="evenodd">
        <g id="article_icon" transform="translate(0.669971, 0.500000)">
            <rect id="矩形" fill="#D8D8D8" opacity="0" x="0" y="0" width="19.9961748" height="19.9961748"></rect>
            <path d="M12.4153536,3.19321437 L12.4153536,4.71448058 L12.4099819,4.79398178 C12.3981642,4.87992903 12.2832097,4.98306572 12.1467685,4.98306572 L7.8494063,4.98306572 L7.77097944,4.97769402 C7.68395785,4.96695061 7.58082116,4.85092183 7.58082116,4.71448058 L7.58082116,3.19321437 L5.16355493,3.19321437 C3.53186471,3.19321437 2.20911843,4.51596065 2.20911843,6.14765087 L2.20911843,15.6383753 C2.20911843,17.2700655 3.53186471,18.5928118 5.16355493,18.5928118 L14.8326198,18.5928118 C16.4643101,18.5928118 17.7870563,17.2700655 17.7870563,15.6383753 L17.7870563,6.14765087 C17.7870563,4.51596065 16.4643101,3.19321437 14.8326198,3.19321437 L12.4153536,3.19321437 L12.4153536,3.19321437 Z M14.0139723,4.93364605 L14.0214927,4.80365085 L14.8326198,4.80472519 C15.5739148,4.80472519 16.1755455,5.40635589 16.1755455,6.14765087 L16.1755455,15.6383753 C16.1755455,16.3796702 15.5739148,16.9813009 14.8326198,16.9813009 L5.16355493,16.9813009 C4.42225995,16.9813009 3.82062925,16.3796702 3.82062925,15.6383753 L3.82062925,6.14765087 L3.82707529,6.01013528 C3.89759488,5.32508687 4.47488648,4.80441068 5.16355493,4.80472519 L5.97253336,4.80365085 L5.96931034,4.71448058 C5.96931034,5.67064367 6.68696982,6.47210172 7.63131516,6.58275879 L7.80320965,6.5935022 L12.1467685,6.59457654 C13.1006704,6.59447508 13.9033197,5.88003409 14.0139723,4.93257171 L14.0139723,4.93364605 Z" id="形状" fill="#FFFFFF" fill-rule="nonzero"></path>
            <path d="M7.58082116,8.2071617 L12.4153536,8.2071617 C12.9525239,8.2071617 13.221109,8.47574683 13.221109,9.01291711 L13.221109,9.01291711 C13.221109,9.55008738 12.9525239,9.81867252 12.4153536,9.81867252 L7.58082116,9.81867252 C7.04365089,9.81867252 6.77506575,9.55008738 6.77506575,9.01291711 L6.77506575,9.01291711 C6.77506575,8.47574683 7.04365089,8.2071617 7.58082116,8.2071617 Z" id="路径" fill="#FFFFFF" fill-rule="nonzero"></path>
            <path d="M7.58082116,11.9673536 L12.4153536,11.9673536 C12.9525239,11.9673536 13.221109,12.2359387 13.221109,12.773109 L13.221109,12.773109 C13.221109,13.3102793 12.9525239,13.5788644 12.4153536,13.5788644 L7.58082116,13.5788644 C7.04365089,13.5788644 6.77506575,13.3102793 6.77506575,12.773109 L6.77506575,12.773109 C6.77506575,12.2359387 7.04365089,11.9673536 7.58082116,11.9673536 Z" id="路径" fill="#FFFFFF" fill-rule="nonzero"></path>
            <path d="M12.1467685,1.40336302 L7.8494063,1.40336302 C6.81105797,1.40336302 5.96931034,2.24511065 5.96931034,3.28345897 L5.96931034,4.71448058 C5.96931034,5.75336789 6.81159333,6.59457654 7.8494063,6.59457654 L12.1467685,6.59457654 C13.1851168,6.59457654 14.0268644,5.75282891 14.0268644,4.71448058 L14.0268644,3.28345897 C14.0268644,2.78482652 13.8287835,2.30661676 13.4761971,1.95403037 C13.1236107,1.60144399 12.6454009,1.40336302 12.1467685,1.40336302 L12.1467685,1.40336302 Z M7.8494063,3.01487384 L12.1467685,3.01487384 C12.295104,3.01487384 12.4153536,3.1351235 12.4153536,3.28345897 L12.4153536,4.71448058 C12.4153536,4.86281606 12.295104,4.98306572 12.1467685,4.98306572 L7.8494063,4.98306572 C7.70107082,4.98306572 7.58082116,4.86281606 7.58082116,4.71448058 L7.58082116,3.28345897 C7.58082116,3.1351235 7.70107082,3.01487384 7.8494063,3.01487384 L7.8494063,3.01487384 Z" id="形状" fill="#FFFFFF" fill-rule="nonzero"></path>
        </g>
    </g>
</svg>