<?xml version="1.0" encoding="UTF-8"?>
<svg width="21px" height="21px" viewBox="0 0 21 21" version="1.1" xmlns="http://www.w3.org/2000/svg" xmlns:xlink="http://www.w3.org/1999/xlink">
    <title>project_icon</title>
    <g id="页面-1" stroke="none" stroke-width="1" fill="none" fill-rule="evenodd">
        <g id="project_icon" transform="translate(0.209029, 0.119504)">
            <rect id="矩形" fill="#D8D8D8" opacity="0" x="0" y="0" width="19.9961748" height="19.9961748"></rect>
            <path d="M18.359825,4.89866831 L17.4280239,4.89866831 C17.0222725,4.89866831 16.6940012,5.22693959 16.6940012,5.63269105 C16.6940012,6.03844251 17.0222725,6.36671379 17.4280239,6.36671379 L17.6258023,6.36671379 L17.6258023,16.3208777 L2.37444095,16.3208777 L2.37444095,3.99745151 L6.38505963,3.99745151 L8.13040259,6.09757212 L8.13040259,6.09961107 L8.13244154,6.10165002 C8.26701238,6.26272723 8.47090758,6.36671379 8.69723126,6.36671379 L12.4162798,6.36671379 C12.8220313,6.36671379 13.1503025,6.03844251 13.1503025,5.63269105 C13.1503025,5.22693959 12.8220313,4.89866831 12.4162798,4.89866831 L10.7545339,4.89866831 C11.0277534,4.17891824 11.6659454,3.67325813 12.408124,3.67325813 C13.3990547,3.67325813 14.2044407,4.57651389 14.2044407,5.6857038 L14.2044407,11.8881959 C14.2044407,12.9973859 13.3990547,13.9006416 12.408124,13.9006416 C11.4171933,13.9006416 10.6118072,12.9973859 10.6118072,11.8881959 L10.6118072,9.34358378 C10.6118072,8.98676717 10.8524036,8.69723598 11.1480516,8.69723598 C11.4436997,8.69723598 11.684296,8.98676717 11.684296,9.34358378 L11.6904129,9.34358378 C11.686335,9.37212911 11.684296,9.40067444 11.684296,9.42921977 L11.684296,11.8229495 C11.684296,12.2287009 12.0125673,12.5569722 12.4183187,12.5569722 C12.8240702,12.5569722 13.1523415,12.2287009 13.1523415,11.8229495 L13.1523415,9.42718081 C13.1523415,9.39863549 13.1503025,9.37009016 13.1462246,9.34154483 L13.1523415,9.34154483 C13.1523415,8.17526426 12.2531636,7.22715155 11.1480516,7.22715155 C10.0898355,7.22715155 9.21920298,8.09778408 9.14987861,9.19677923 L9.14580071,9.19677923 L9.14580071,11.9391697 C9.15803442,12.8383476 9.48834465,13.6824737 10.0816797,14.3247436 C10.6994822,14.9955589 11.5272967,15.3646092 12.4101629,15.3646092 C13.2930292,15.3646092 14.1208437,14.9955589 14.7386462,14.3247436 C15.3299423,13.6824737 15.6602525,12.8363086 15.6745252,11.9391697 L15.6745252,5.6857038 C15.6745252,4.76817538 15.342176,3.90162076 14.7386462,3.24711715 C14.1208437,2.57630193 13.2930292,2.20725161 12.4101629,2.20725161 C11.5272967,2.20725161 10.6994822,2.57630193 10.0816797,3.24711715 C9.65349977,3.70995927 9.36396858,4.28086584 9.22939774,4.89866831 L9.04589206,4.89866831 L7.29851015,2.7944698 C7.15986141,2.62727573 6.9518883,2.52940603 6.73372043,2.52940603 L1.63837926,2.52940603 C1.23262781,2.52940603 0.904356526,2.85767731 0.904356526,3.26342877 L0.904356526,17.0549004 C0.904356526,17.4606519 1.23262781,17.7889232 1.63837926,17.7889232 L18.3577861,17.7889232 C18.7635375,17.7889232 19.0918182,17.4606519 19.0918182,17.0549004 L19.0918182,5.63269105 C19.0938478,5.22693959 18.7655765,4.89866831 18.359825,4.89866831 Z" id="路径" fill="#FFFFFF" fill-rule="nonzero"></path>
        </g>
    </g>
</svg>