<?xml version="1.0" encoding="UTF-8"?>
<svg width="20px" height="21px" viewBox="0 0 20 21" version="1.1" xmlns="http://www.w3.org/2000/svg" xmlns:xlink="http://www.w3.org/1999/xlink">
    <title>school_icon</title>
    <g id="页面-1" stroke="none" stroke-width="1" fill="none" fill-rule="evenodd">
        <g id="school_icon" transform="translate(0.000000, 0.500000)">
            <rect id="矩形" fill="#D8D8D8" opacity="0" x="0" y="0" width="19.9961748" height="19.9961748"></rect>
            <path d="M19.1,5.10808739 L10.74,1.15808739 C10.51,1.05808739 10.27,0.998087388 10.01,0.998087388 C9.76,0.998087388 9.51,1.04808739 9.28,1.15808739 L0.91,5.10808739 C0.35,5.35808739 0,5.90808739 0,6.51808739 C0.02,7.12808739 0.39,7.67808739 0.95,7.90808739 L3.14,8.86808739 L3.14,14.8680874 C3.14,15.4580874 3.49,16.0080874 4.02,16.2580874 L9.66,18.9280874 C9.77,18.9780874 9.88,18.9980874 10,18.9980874 L10.01,18.9980874 C10.14,18.9980874 10.26,18.9680874 10.37,18.8980874 L16,16.2280874 C16.54,15.9780874 16.88,15.4280874 16.88,14.8380874 L16.88,8.86808739 L19.04,7.91808739 C19.41,7.76808739 19.7,7.48808739 19.86,7.11808739 C20.21,6.34808739 19.86,5.44808739 19.1,5.10808739 Z M15.29,14.8680874 L10.01,17.3780874 L4.71,14.8480874 L4.71,9.56808739 L9.31,11.5880874 C9.53,11.6780874 9.76,11.7280874 10,11.7280874 L10.03,11.7280874 C10.26,11.7280874 10.48,11.6780874 10.69,11.5880874 L15.31,9.55808739 L15.29,14.8680874 L15.29,14.8680874 Z M10.05,10.1680874 C10.03,10.1780874 10.01,10.1780874 9.99,10.1780874 C9.97,10.1780874 9.95,10.1780874 9.93,10.1680874 L1.56,6.50808739 L9.93,2.55808739 C9.95,2.54808739 9.96,2.54808739 9.98,2.54808739 L10,2.54808739 C10.01,2.54808739 10.03,2.54808739 10.04,2.55808739 L18.4,6.49808739 L10.05,10.1680874 Z" id="形状" fill="#FFFFFF" fill-rule="nonzero"></path>
            <path d="M19.18,14.4080874 C18.83,14.5780874 18.42,14.3880874 18.27,13.9980874 C18.23,13.8980874 18.21,13.7880874 18.22,13.6880874 L18.22,9.40808739 L19.8,8.66808739 L19.8,13.3680874 C19.79,13.8280874 19.55,14.2380874 19.18,14.4080874 Z" id="路径" fill="#FFFFFF" fill-rule="nonzero"></path>
        </g>
    </g>
</svg>