<?xml version="1.0" encoding="UTF-8"?>
<svg width="21px" height="21px" viewBox="0 0 21 21" version="1.1" xmlns="http://www.w3.org/2000/svg" xmlns:xlink="http://www.w3.org/1999/xlink">
    <title>year_icon</title>
    <g id="页面-1" stroke="none" stroke-width="1" fill="none" fill-rule="evenodd">
        <g id="year_icon" transform="translate(0.501913, 0.500000)">
            <rect id="矩形" fill="#D8D8D8" opacity="0" x="0" y="0" width="19.9961748" height="19.9961748"></rect>
            <path d="M18.0354286,10.8911253 C18.5712513,10.8911253 18.9284665,10.5339101 18.9284665,9.99808739 L18.9284665,8.21201157 C18.9284665,5.71150542 16.9637831,3.74682202 14.4632769,3.74682202 L13.570239,3.74682202 L13.570239,2.67517653 C13.570239,1.78213862 12.8558087,1.06770829 11.9627708,1.06770829 L8.03340399,1.06770829 C7.14036608,1.06770829 6.42593575,1.78213862 6.42593575,2.67517653 L6.42593575,3.74682202 L5.53289784,3.74682202 C3.03239169,3.74682202 1.06770829,5.71150542 1.06770829,8.21201157 L1.06770829,14.4632769 C1.06770829,16.9637831 3.03239169,18.9284665 5.53289784,18.9284665 L14.4632769,18.9284665 C16.9637831,18.9284665 18.9284665,16.9637831 18.9284665,14.4632769 L18.9284665,13.1237201 C18.9284665,12.5878973 18.5712513,12.2306822 18.0354286,12.2306822 C17.4996058,12.2306822 17.1423907,12.5878973 17.1423907,13.1237201 L17.1423907,14.4632769 C17.1423907,15.9814414 15.9814414,17.1423907 14.4632769,17.1423907 L5.53289784,17.1423907 C4.01473339,17.1423907 2.85378411,15.9814414 2.85378411,14.4632769 L2.85378411,8.21201157 C2.85378411,6.69384712 4.01473339,5.53289784 5.53289784,5.53289784 L14.4632769,5.53289784 C15.9814414,5.53289784 17.1423907,6.69384712 17.1423907,8.21201157 L17.1423907,9.99808739 C17.1423907,10.5339101 17.4996058,10.8911253 18.0354286,10.8911253 Z M11.7841632,3.74682202 L8.21201157,3.74682202 L8.21201157,2.58587274 L11.7841632,2.58587274 L11.7841632,3.74682202 L11.7841632,3.74682202 Z" id="形状" fill="#FFFFFF" fill-rule="nonzero"></path>
            <path d="M4.63985993,9.10504948 C4.10403718,9.10504948 3.74682202,9.46226464 3.74682202,9.99808739 C3.74682202,10.5339101 4.10403718,10.8911253 4.63985993,10.8911253 L8.21201157,10.8911253 C8.21201157,11.873467 9.01574569,12.6772011 9.99808739,12.6772011 C10.9804291,12.6772011 11.7841632,11.873467 11.7841632,10.8911253 L15.3563148,10.8911253 C15.8921376,10.8911253 16.2493528,10.5339101 16.2493528,9.99808739 C16.2493528,9.46226464 15.8921376,9.10504948 15.3563148,9.10504948 L4.63985993,9.10504948 Z" id="路径" fill="#FFFFFF" fill-rule="nonzero"></path>
        </g>
    </g>
</svg>